<?xml version="1.0" encoding="utf-8"?>
<!-- Generator: Adobe Illustrator 24.3.0, SVG Export Plug-In . SVG Version: 6.00 Build 0)  -->
<svg version="1.1" id="Layer_1" xmlns="http://www.w3.org/2000/svg" xmlns:xlink="http://www.w3.org/1999/xlink" x="0px" y="0px"
	 viewBox="0 0 841.89 595.28" style="enable-background:new 0 0 841.89 595.28;" xml:space="preserve">
<style type="text/css">
	.st0{fill:#085C38;}
	.st1{font-family:'Coolvetica-Regular';}
	.st2{font-size:93.2464px;}
	.st3{letter-spacing:1;}
	.st4{fill:#065D37;}
	.st5{fill:#069C47;}
	.st6{fill:#FFFFFF;}
	.st7{fill:#195C40;}
	.st8{font-family:'StudioSans-Medium';}
	.st9{font-size:29.1404px;}
	.st10{clip-path:url(#SVGID_2_);fill:#FFCC74;}
	.st11{opacity:0.55;clip-path:url(#SVGID_2_);enable-background:new    ;}
	.st12{clip-path:url(#SVGID_4_);fill:#FFCC74;}
	.st13{clip-path:url(#SVGID_2_);fill:#7A9FA8;}
	.st14{clip-path:url(#SVGID_2_);fill:#FCFEFD;}
	.st15{opacity:0.31;clip-path:url(#SVGID_2_);enable-background:new    ;}
	.st16{clip-path:url(#SVGID_6_);fill:#FFCC74;}
	.st17{opacity:0.46;clip-path:url(#SVGID_2_);enable-background:new    ;}
	.st18{clip-path:url(#SVGID_8_);fill:#FFCC74;}
	.st19{clip-path:url(#SVGID_10_);fill:#FFCC74;}
	.st20{clip-path:url(#SVGID_12_);fill:#FFCC74;}
	.st21{clip-path:url(#SVGID_14_);fill:#FFCC74;}
	.st22{clip-path:url(#SVGID_16_);fill:#FFCC74;}
	.st23{opacity:0.64;clip-path:url(#SVGID_2_);enable-background:new    ;}
	.st24{clip-path:url(#SVGID_18_);fill:#FFCC74;}
	.st25{clip-path:url(#SVGID_20_);fill:#FFCC74;}
	.st26{opacity:0.72;clip-path:url(#SVGID_2_);enable-background:new    ;}
	.st27{clip-path:url(#SVGID_22_);fill:#FFCC74;}
	.st28{clip-path:url(#SVGID_24_);fill:#FFCC74;}
	.st29{clip-path:url(#SVGID_26_);fill:#FFCC74;}
	.st30{clip-path:url(#SVGID_28_);fill:#FFCC74;}
	.st31{clip-path:url(#SVGID_30_);fill:#FFCC74;}
	.st32{clip-path:url(#SVGID_32_);fill:#FFCC74;}
	.st33{clip-path:url(#SVGID_34_);fill:#FFCC74;}
	.st34{clip-path:url(#SVGID_36_);fill:#FFCC74;}
	.st35{clip-path:url(#SVGID_38_);fill:#FFCC74;}
	.st36{clip-path:url(#SVGID_40_);fill:#FFCC74;}
	.st37{clip-path:url(#SVGID_42_);fill:#FFCC74;}
	.st38{clip-path:url(#SVGID_44_);fill:#FFCC74;}
	.st39{clip-path:url(#SVGID_46_);fill:#FFCC74;}
	.st40{clip-path:url(#SVGID_48_);fill:#FFCC74;}
	.st41{clip-path:url(#SVGID_50_);fill:#FFCC74;}
	.st42{clip-path:url(#SVGID_52_);fill:#FFCC74;}
	.st43{clip-path:url(#SVGID_54_);fill:#FFCC74;}
	.st44{clip-path:url(#SVGID_56_);fill:#FFCC74;}
	.st45{clip-path:url(#SVGID_58_);fill:#FFCC74;}
	.st46{clip-path:url(#SVGID_60_);fill:#FFCC74;}
	.st47{clip-path:url(#SVGID_62_);fill:#FFCC74;}
</style>
<g>
	<text transform="matrix(1 0 0 1 293.8648 332.1664)" class="st0 st1 st2 st3">VenGrow</text>
	<path class="st4" d="M166.9,311.67v51.07c0,1.55,1.26,2.81,2.81,2.81H270.5c1.55,0,2.81-1.26,2.81-2.81v-53.08
		c0-0.76-0.3-1.48-0.84-2.01l-24.27-23.76c-1.13-1.1-2.94-1.06-4.02,0.09l-33,35.33c-1.08,1.16-2.92,1.19-4.04,0.07l-22.76-22.76
		c-1.11-1.11-2.91-1.1-4,0.03l-12.68,13.05C167.18,310.23,166.9,310.94,166.9,311.67z"/>
	<path class="st5" d="M180.94,286.85l26.59,26.71c0.96,0.97,2.53,0.94,3.46-0.06l55.75-59.17c0,0-14.38-0.97-24.57,8.32
		l-31.73,31.23l-12.36-12.36c-2.85-2.85-7.43-3.03-10.49-0.39L180.94,286.85z"/>
	<rect x="229.5" y="326.44" class="st6" width="10.61" height="11.44"/>
	<rect x="244.66" y="326.44" class="st6" width="10.61" height="11.44"/>
	<rect x="229.5" y="342.02" class="st6" width="10.61" height="11.44"/>
	<rect x="244.66" y="342.02" class="st6" width="10.61" height="11.44"/>
	<text transform="matrix(1 0 0 1 294.1577 373.5785)" class="st7 st8 st9">Verified Property Market</text>
	<g>
		<defs>
			<rect id="SVGID_1_" x="582.91" y="214.24" width="92.08" height="71.15"/>
		</defs>
		<clipPath id="SVGID_2_">
			<use xlink:href="#SVGID_1_"  style="overflow:visible;"/>
		</clipPath>
		<path class="st10" d="M674.2,262.28c0.61,4.03-1.02,5.92-2.36,7.18c-4.32-5.37-1.17-6.6-0.48-6.99c0.69-0.39,0.61-0.91,0.45-1.37
			c-1.18-0.69-0.85-1.12-0.82-2.04c-0.26-1.36-2.57-3.96-2.98-4.47c-0.96-0.19-1.43-0.57-1.78-0.92c-0.64-0.03-7.12,1.81-7.12,1.81
			l4.93,2.66c1.07,1.45,1.17,2.87,0.25,4.25c-0.14,0.21-0.3,0.4-0.48,0.57c-2.84,2.94-2.54,6.4-4.36,6.85
			c-2.16-0.47-4.26,3.39-8.64,2.51c-0.61-3.76,2.31-5.95,3.71-6.1c0.67,0.79,1.69,0.96,2.39,1.02c0.09-0.85,1.11-1.4,1.87-1.55
			c4.09-4,1.21-5.14,1.21-5.14s-8.47,0.2-9.98,0.12c-1.52-0.08-2.84-1.54-2.84-1.54c-5.33,1.94-10.84,2.78-16.7,1.46
			c-1.43,2.8-3.53,5.26-6.02,7.18c-0.81,0.62-1.72,1.07-2.7,1.36c-1.62,0.48-3.22,1.07-4.65,2.01c-1.24,0.76-1.1,3.01-0.97,4.25
			c0.14,1.35,0.45,2.68,0.82,3.98c-0.06,0.26-0.82,1.18-1.16,1.58c1.24,0.59,1.92,1.77,2,2.6c-1.92,0.22-4.65-0.01-5.12-0.06
			c-0.05-1.15,0.45-1.68,0.45-1.68l-0.27-0.66c0,0,0,0,0.01,0h-0.02c0.51-0.41,0.66-0.97,0.66-1.48c-1.05-1.3-0.16-1.58,0.35-1.97
			c0.27-1.75-0.62-5.14-1.05-6.07c-1.99-4.22,5.41-2.88,5.57-8.41c-10.31,7.12-14.59,3.23-20.96,12.8c0,0,0.08,0.48-0.42,1.3
			c-0.39,1.02-1.5,1.82-1.5,1.82s-0.46,0.28-0.75,0.92c-0.06,0.13-0.11,0.27-0.15,0.43c0.02,0.01,0.04,0.02,0.06,0.03
			c1.37,0.62,2.19,3.56,2.19,3.56c0.02,0.27-5.68,0.33-6.58,0c-0.07-0.09-0.13-0.19-0.19-0.28c-0.53-0.94-0.27-2.05,0.06-2.82
			c1.68-0.71,2.41-2.62,2.58-3.13c0.04-0.05,0.08-0.09,0.12-0.14c0.09-0.11,0.19-0.23,0.28-0.35c-0.35-2.78,1.19-3.33,2.36-3.48
			c1.6-0.93,4.83-6.69,4.83-6.69s0.58-2.57,1.48-3.19l2.95-0.66c5.22-0.74,2.07-11.06,10.32-16.04c4.67-5.22,18.99-5.92,21.8-7.47
			c1.29-3.29,3.05-6.4,5.29-9.13c1.83-2.23,3.98-4.21,6.37-5.84c1.93-1.32,4.02-2.42,6.2-3.28c1.55-0.61,3.14-1.1,4.77-1.44
			c0.27-0.06,0.55-0.11,0.82-0.16c0.19-0.03,0.67-0.03,0.8-0.17c0.19-0.2,0.19-0.96,0.28-1.24c0.13-0.43,0.3-0.84,0.51-1.24
			c0.42-0.79,1.01-1.5,1.7-2.06c0.41-0.33,0.85-0.6,1.32-0.82l-0.42,1.7l0.74-0.87c0,0.55-0.13,1.29,0.02,1.82
			c0.13,0.44,0.45,0.95,0.76,1.29c0.18-0.22,0.11-0.51-0.08-0.85c0.56,0.13,1.03,0.45,1.46,0.88c0.45-0.64,1.05-1.16,1.81-1.54
			c-0.16,1.2-0.42,2.23-0.95,2.8c1.52,0.43,2.54,1.22,2.45,2.82c1.85,1.4,0.06,2.96,1.44,4.52c-1.18-0.3-1.83-1.26-2.26-2.51
			c1.11,3.7,2.02,6.06,4.48,8.47c0.15,0.31,0.09,0.94,0.14,1.28c0.63,4.15-1.97,4.62-3.79,4.31c-1.13-0.2-2.13-0.87-2.72-1.85
			c-2.94-4.83-5.01-2.22-7.64-4.67c-1.55,1.22-3.59,6.03-2.57,9.18c4.52,2.54,3.41,7.3,3.04,8.52c0.82-0.44,2.89,0.41,5.25,0.53
			c3.5-1.2,4.35,2.86,4.35,2.86s2.39,3.59,3.44,5.05C675.78,259.45,674.7,261.02,674.2,262.28L674.2,262.28z"/>
		<g class="st11">
			<g>
				<defs>
					<rect id="SVGID_3_" x="582.87" y="282.82" width="65.13" height="2.51"/>
				</defs>
				<clipPath id="SVGID_4_">
					<use xlink:href="#SVGID_3_"  style="overflow:visible;"/>
				</clipPath>
				<path class="st12" d="M647.89,284.07c0,0.02-0.01,0.04-0.04,0.06c-0.03,0.02-0.07,0.04-0.12,0.06s-0.12,0.04-0.2,0.06
					c-0.08,0.02-0.17,0.04-0.27,0.06c-0.1,0.02-0.22,0.04-0.35,0.06c-0.13,0.02-0.27,0.04-0.43,0.06s-0.32,0.04-0.5,0.06
					s-0.37,0.04-0.57,0.06c-0.2,0.02-0.42,0.04-0.65,0.05c-0.23,0.02-0.47,0.04-0.72,0.05c-0.25,0.02-0.51,0.03-0.79,0.05
					s-0.56,0.03-0.85,0.05s-0.6,0.03-0.92,0.05c-0.32,0.02-0.64,0.03-0.98,0.05c-0.34,0.02-0.68,0.03-1.04,0.05
					c-0.36,0.01-0.72,0.03-1.1,0.04s-0.76,0.03-1.15,0.04s-0.8,0.03-1.21,0.04c-0.41,0.01-0.83,0.02-1.26,0.04
					c-0.43,0.01-0.86,0.02-1.3,0.03s-0.89,0.02-1.35,0.03c-0.46,0.01-0.92,0.02-1.39,0.03c-0.47,0.01-0.94,0.02-1.42,0.03
					s-0.97,0.02-1.46,0.02c-0.49,0.01-0.99,0.01-1.49,0.02c-0.5,0.01-1.01,0.01-1.51,0.02c-0.51,0.01-1.02,0.01-1.54,0.02
					c-0.52,0-1.03,0.01-1.56,0.01c-0.52,0-1.05,0.01-1.57,0.01s-1.05,0.01-1.58,0.01c-0.53,0-1.06,0-1.59,0c-0.53,0-1.06,0-1.59,0
					c-0.53,0-1.06,0-1.59,0c-0.53,0-1.06,0-1.59,0c-0.53,0-1.06,0-1.58-0.01c-0.53,0-1.05-0.01-1.57-0.01
					c-0.52,0-1.04-0.01-1.56-0.01c-0.52,0-1.03-0.01-1.54-0.02c-0.51-0.01-1.01-0.01-1.51-0.02s-1-0.01-1.49-0.02
					c-0.49-0.01-0.98-0.02-1.46-0.02c-0.48-0.01-0.96-0.02-1.42-0.03c-0.47-0.01-0.93-0.02-1.39-0.03
					c-0.46-0.01-0.91-0.02-1.35-0.03c-0.44-0.01-0.88-0.02-1.3-0.03c-0.43-0.01-0.85-0.02-1.26-0.04s-0.81-0.03-1.21-0.04
					c-0.39-0.01-0.78-0.03-1.15-0.04s-0.74-0.03-1.1-0.04s-0.7-0.03-1.04-0.05c-0.34-0.02-0.66-0.03-0.98-0.05s-0.62-0.03-0.92-0.05
					s-0.58-0.03-0.85-0.05c-0.27-0.02-0.54-0.03-0.79-0.05c-0.25-0.02-0.49-0.04-0.72-0.05c-0.23-0.02-0.44-0.04-0.65-0.05
					c-0.2-0.02-0.39-0.04-0.57-0.06c-0.18-0.02-0.35-0.04-0.5-0.06s-0.3-0.04-0.43-0.06c-0.13-0.02-0.25-0.04-0.35-0.06
					c-0.1-0.02-0.19-0.04-0.27-0.06c-0.08-0.02-0.14-0.04-0.2-0.06c-0.05-0.02-0.09-0.04-0.12-0.06c-0.03-0.02-0.04-0.04-0.04-0.06
					s0.01-0.04,0.04-0.06c0.03-0.02,0.07-0.04,0.12-0.06c0.05-0.02,0.12-0.04,0.2-0.06s0.17-0.04,0.27-0.06
					c0.1-0.02,0.22-0.04,0.35-0.06c0.13-0.02,0.27-0.04,0.43-0.06s0.32-0.04,0.5-0.06c0.18-0.02,0.37-0.04,0.57-0.06
					c0.2-0.02,0.42-0.04,0.65-0.05c0.23-0.02,0.47-0.04,0.72-0.05c0.25-0.02,0.51-0.03,0.79-0.05c0.27-0.02,0.56-0.03,0.85-0.05
					c0.3-0.02,0.6-0.03,0.92-0.05c0.32-0.02,0.64-0.03,0.98-0.05c0.34-0.02,0.68-0.03,1.04-0.05s0.72-0.03,1.1-0.04
					c0.38-0.01,0.76-0.03,1.15-0.04c0.39-0.01,0.8-0.03,1.21-0.04c0.41-0.01,0.83-0.02,1.26-0.04c0.43-0.01,0.86-0.02,1.3-0.03
					c0.44-0.01,0.89-0.02,1.35-0.03c0.46-0.01,0.92-0.02,1.39-0.03c0.47-0.01,0.94-0.02,1.42-0.03s0.97-0.02,1.46-0.02
					c0.49-0.01,0.99-0.01,1.49-0.02c0.5-0.01,1.01-0.01,1.51-0.02c0.51-0.01,1.02-0.01,1.54-0.02c0.52,0,1.03-0.01,1.56-0.01
					s1.05-0.01,1.57-0.01c0.53,0,1.05-0.01,1.58-0.01c0.53,0,1.06,0,1.59,0c0.53,0,1.06,0,1.59,0c0.53,0,1.06,0,1.59,0
					s1.06,0,1.59,0c0.53,0,1.06,0,1.58,0.01s1.05,0.01,1.57,0.01s1.04,0.01,1.56,0.01c0.52,0,1.03,0.01,1.54,0.02
					c0.51,0.01,1.01,0.01,1.51,0.02c0.5,0.01,1,0.01,1.49,0.02c0.49,0.01,0.98,0.02,1.46,0.02s0.96,0.02,1.42,0.03
					c0.47,0.01,0.93,0.02,1.39,0.03s0.91,0.02,1.35,0.03c0.44,0.01,0.88,0.02,1.3,0.03c0.43,0.01,0.85,0.02,1.26,0.04
					c0.41,0.01,0.81,0.03,1.21,0.04s0.78,0.03,1.15,0.04c0.38,0.01,0.74,0.03,1.1,0.04c0.36,0.01,0.7,0.03,1.04,0.05
					c0.34,0.02,0.66,0.03,0.98,0.05c0.32,0.02,0.62,0.03,0.92,0.05c0.3,0.02,0.58,0.03,0.85,0.05c0.27,0.02,0.54,0.03,0.79,0.05
					c0.25,0.02,0.49,0.04,0.72,0.05c0.23,0.02,0.44,0.04,0.65,0.05c0.2,0.02,0.39,0.04,0.57,0.06s0.35,0.04,0.5,0.06
					s0.3,0.04,0.43,0.06c0.13,0.02,0.25,0.04,0.35,0.06c0.1,0.02,0.19,0.04,0.27,0.06c0.08,0.02,0.14,0.04,0.2,0.06
					s0.09,0.04,0.12,0.06C647.88,284.03,647.89,284.05,647.89,284.07z"/>
			</g>
		</g>
		<path class="st13" d="M673.15,236.16c-0.73,1.45-2.34,1.85-4.27-1.5c-0.07,0.81,0.07,1.21,0.34,2.23
			c-1.95-4.28-4.89-3.74-3.72-7.44c-1.17,2.02-2.62,2.12-4.4,0.08c0.21,0.87,1.21,1.75,2.41,2.65c-1.6-0.35-2.73-1.15-3.32-2.18
			c-0.9,0.34-1.72,0.9-2.34,1.63c-0.52,0.61-0.87,1.34-1.08,2.12c0.15-1.08,0.62-2.13,1.37-2.95c0.51-0.55,1.12-1.02,1.79-1.37
			c-0.11-0.29-0.18-0.59-0.21-0.9c-1.92,1.16-3.52,2.87-4.49,4.9c-0.68,1.46-1,3.05-0.99,4.67c-0.28-2.17,0.1-4.45,1.12-6.41
			c1.05-2.01,2.64-3.75,4.57-4.96c0.2-0.63,0.54-1.27,1.03-1.9c0.31-0.41,0.68-0.81,1.11-1.2c-11.9,7.18-9.42,14.14-7.43,19.98
			c0.36,1.07,0.71,2.09,0.95,3.08c0.56,2.27,0.55,4.32-1.11,6.08c0.29-1.76-0.03-3.45-0.87-5.08c0.22,3.52-0.62,6.21-3.27,7.47
			c5.4-1.63,8.23,1.87,12.43,3.42c-2.92-0.3-5.59-1.43-8.29-1.64c0.43,0.35,1,0.64,1.64,0.86c1.71,0.61,3.96,0.84,5.66,1.01
			c-3.67-0.06-7.04-0.42-9.77-1.42c-0.06-0.02-0.12-0.05-0.18-0.07c0.24,0.85,1.33,1.5,2.83,2.04c-0.16-0.01-0.31-0.02-0.47-0.03
			c-1.77-0.17-3.26-0.81-4.27-2.26c-1.61,0.19-3.03-0.41-4.24-1.87l1.93-0.03l0.11,0l0.35-0.01c-0.79-1.58-2.16-3.09-3.94-4.55
			c-1.41,4.63-9.15,4.97-14.29,2.69c-0.25-0.11-0.49-0.23-0.73-0.35c0.19,0.28,0.44,0.55,0.73,0.8c0.1,0.08,0.2,0.16,0.32,0.25
			c0.66,0.47,1.52,0.88,2.52,1.24c2.17,0.78,5.04,1.31,8.07,1.65c-6.66,0.89-12.22-0.49-16.26-4.98c-2.69,4.38-5.23,8.23-8.65,10.66
			c2.54-2.77,4.43-5.74,5.6-8.95c-3.76,4.56-9.1,11.86-16.42,13.07c0.73-0.28,1.2-0.66,1.55-1.06c0.39-0.44,0.63-0.88,0.92-1.19
			c-0.76,0.51-1.4,0.61-1.4,0.61c0.74-0.48,1.07-0.86,1.07-0.86c2.14-1.71,2.98-3.4,3.52-5.16c1.06-3.49,0.9-7.21,7.26-11.71
			c3.3-1.82,6.32-2.53,9.14-3.03c0.24-0.04,0.48-0.08,0.72-0.13l0.07-0.02c-0.01,0-0.02,0.01-0.03,0.01
			c0.17-0.03,0.33-0.05,0.5-0.08c0.27-0.05,0.59-0.1,0.91-0.16c0.13-0.02,0.25-0.04,0.38-0.06c0.12-0.02,0.25-0.04,0.37-0.06
			c0.06-0.01,0.12-0.02,0.18-0.03c0.04-0.01,0.08-0.02,0.13-0.02c0.2-0.03,0.38-0.07,0.53-0.1c0.06,0,0.12,0,0.17,0
			c0.28-0.01,0.55-0.02,0.83-0.04c0.02,0,0.05,0,0.08,0c-0.03,0.01-0.07,0.02-0.1,0.03c-0.5,0.13-0.98,0.31-1.43,0.55
			c-0.42,0.22-0.82,0.48-1.18,0.78c-0.01,0.01-0.02,0.02-0.03,0.02c-0.19,0.15-0.36,0.32-0.53,0.49c-0.08,0.09-0.17,0.18-0.25,0.27
			c-0.07,0.08-0.17,0.17-0.21,0.27c0.11,0.01,0.29-0.12,0.38-0.17c0.13-0.06,0.26-0.12,0.39-0.18c0.24-0.11,0.48-0.23,0.73-0.34
			c0.8-0.38,1.61-0.75,2.41-1.14c0.67-0.32,1.33-0.66,1.98-1.01c1.54-0.83,3.04-1.55,4.44-2.6c-0.07,0.09-0.14,0.2-0.2,0.33
			c-0.55,1.15-0.8,3.66-0.44,5.02c0.08-0.44,0.2-0.88,0.33-1.34c0.58-1.99,1.59-4.18,2.8-6.38c0.89-1.63,1.89-3.25,2.88-4.8
			c0.01-0.01,0.01-0.02,0.02-0.03c-0.01,0.02-0.02,0.05-0.02,0.07c-0.01,0.9-0.08,1.55,0.16,3.38c0.03,0.23,0.22,0.41,0.36,0.6
			c0.26-0.94,0.62-1.81,0.88-2.74c0.28-1,0.63-1.99,1.03-2.95c0.8-1.89,1.85-3.68,3.1-5.31c-0.13,0.63-0.25,1.27-0.38,1.9
			c1.94-3.08,5.09-5.37,8.62-6.27c-1.15,0.47-2.14,1.31-2.78,2.38c0.22-0.36,1.28-0.7,1.66-0.89c0.61-0.31,1.24-0.6,1.87-0.88
			c0.97-0.42,1.95-0.8,2.95-1.14c0.3-0.1,0.61-0.2,0.91-0.3c0.5-0.16,1.04-0.1,0.83-0.67c-0.21-0.53-0.32-0.94-0.3-1.54
			c0.04-1.02,0.42-1.98,1.22-2.65c-0.33,1.43-0.46,2.86-0.12,3.72c0.31-0.5,0.55-1.35,0.78-2.3c-0.02,1.02-0.07,1.98-0.25,2.75
			c-0.05,0.21-0.11,0.41-0.18,0.59c0,0,0.01,0,0.01,0.01c1.68,1.13,1.37,2.35-0.16,3.62c-0.04,0.02-0.05,0.03-0.1,0.03
			c0.07,0.01,0.14,0.02,0.21,0.02c0.41,0.04,0.74,0.06,1.02,0.17c0.32,0.12,0.55,0.38,0.68,0.69c0.04,0.08,0.07,0.17,0.09,0.26
			c0.16,0.66,0.98,0.9,1.46,1.23c-0.02-0.33-0.07-0.63-0.15-0.89c-0.27-0.98-0.88-1.53-1.65-1.84c0.42-0.37,0.78-0.7,1.06-0.99
			c0.06-0.06,0.11-0.12,0.16-0.18c0.87,0.81,1.75,1.41,2.65,1.89c-0.01,0.28,0.01,0.57,0.04,0.87c0,0.02,0.01,0.05,0.01,0.07
			c0.03,0.27,0.09,0.55,0.16,0.82c0.01,0.04,0.02,0.08,0.03,0.12c0.01,0.05,0.03,0.1,0.04,0.15c0.02,0.09,0.05,0.18,0.08,0.26
			c0.02,0.05,0.03,0.09,0.05,0.14c0.02,0.08,0.05,0.16,0.08,0.23c0.04,0.12,0.09,0.25,0.14,0.37c0.06,0.14,0.12,0.29,0.18,0.43
			c0.16,0.35,0.33,0.7,0.51,1.04c0.04,0.07,0.08,0.14,0.12,0.21c0.24,0.43,0.5,0.87,0.79,1.31c0.09,0.14,0.19,0.29,0.28,0.43
			c0.16,0.23,0.31,0.47,0.47,0.69c0.01,0.02,0.03,0.04,0.04,0.06c0.1,0.14,0.19,0.27,0.29,0.41c0.22,0.31,0.46,0.63,0.7,0.95
			C673.65,234.56,673.5,235.47,673.15,236.16L673.15,236.16z"/>
		<path class="st14" d="M631.82,243.56c-0.01,0.01-0.02,0.02-0.03,0.02c-0.5,0.13-0.98,0.31-1.43,0.55
			c-0.42,0.22-0.82,0.48-1.18,0.78c-0.26,0.08-0.52,0.16-0.78,0.26c-0.34,0.12-0.67,0.25-1,0.38c-0.76,0.3-1.5,0.62-2.22,1
			c-0.8,0.42-1.58,0.9-2.3,1.45c-0.78,0.6-1.5,1.29-2.13,2.06c-2.69,0.45-5.1,2.34-6.17,4.86c0.05-1.08,0.33-2.15,0.82-3.11
			c-1.92,2.52-3.15,5.55-3.53,8.7c0.02-0.92,0.04-1.84,0.07-2.76c-0.45,0.83-0.9,1.66-1.35,2.49c0.03-0.42,0.06-0.83,0.09-1.25
			c1.06-3.49,0.9-7.21,7.26-11.71c3.3-1.82,6.32-2.53,9.14-3.03c0.24-0.04,0.48-0.08,0.72-0.13c0,0,0.01,0,0.02,0
			c0.01,0,0.02,0,0.03,0c0.17-0.03,0.33-0.05,0.5-0.08c0.27-0.05,0.59-0.1,0.91-0.16c0.13-0.02,0.25-0.04,0.38-0.06
			c0.13-0.02,0.25-0.04,0.37-0.06c0.06-0.01,0.12-0.02,0.18-0.03c0.04-0.01,0.08-0.02,0.13-0.02c0.2-0.03,0.38-0.07,0.53-0.1
			L631.82,243.56L631.82,243.56z"/>
		<path class="st14" d="M633.22,250.12c0.62,0.46,1.38,0.73,2.15,0.77c-2.14,0.11-4.31-0.33-6.23-1.27c-0.84-0.41-2.03-1.22-3.01-1
			c-0.55,0.12-2.03,0.84-2.2,1.43c0.2-0.67,0.68-1.23,1.24-1.65c1.32-0.98,2.71-1.66,4.26-2.22c1.57-0.57,3.18-1.04,4.66-1.81
			c1.63-0.85,3.08-2.05,4.21-3.5c-0.55,1.15-0.8,3.66-0.44,5.02c0.08-0.44,0.2-0.88,0.33-1.34c0.58-1.99,1.59-4.18,2.8-6.38
			c-0.23,1.19-0.37,2.41-0.28,3.63c0.06,0.81,0.14,2.13,0.74,2.74c0.81-0.83,1.23-2.25,1.33-3.37c0.07,2.11-0.36,4.35-1.75,5.94
			c-0.94,1.08-2.26,1.79-3.62,2.22c-1.37,0.43-2.8,0.61-4.23,0.79C633.2,250.11,633.21,250.12,633.22,250.12L633.22,250.12z"/>
		<path class="st14" d="M652.68,247.86c-0.01,0.16-0.03,0.32-0.05,0.47c-0.02,0.14-0.1,0.34-0.09,0.48
			c-0.2-1.95-1.59-3.73-3.44-4.39c1.75,2.16,2.44,5.14,1.83,7.85c0.04-7.2-7.48-6.78-6.55-14.93c0,0.01,0.01,0.02,0.02,0.02
			c0.09-0.34,0.2-0.67,0.31-1c0.19-0.58,0.4-1.15,0.57-1.74c0.25-0.91,0.56-1.8,0.92-2.67c-0.11,2.3,0.93,5.06,0.94,5.46
			c-0.3-0.26-0.63-0.89-0.67-1.3c0.03,0.33-0.01,0.77,0.03,1.03c0.08,0.51,0.22,1.01,0.39,1.49c0.34,0.93,0.85,1.8,1.49,2.56
			c0.67,0.8,1.5,1.23,2.27,1.89c0.66,0.56,1.23,1.55,1.58,2.32c0.22,0.49,0.37,1.02,0.42,1.55
			C652.7,247.27,652.7,247.57,652.68,247.86L652.68,247.86z"/>
		<g class="st15">
			<g>
				<defs>
					<rect id="SVGID_5_" x="646.41" y="221.96" width="11.22" height="12.22"/>
				</defs>
				<clipPath id="SVGID_6_">
					<use xlink:href="#SVGID_5_"  style="overflow:visible;"/>
				</clipPath>
				<path class="st16" d="M657.57,222.04c-1.1,0.49-2.36,1.38-3.96,2.91c-0.35,0.33-0.58,1-0.97,1.28c-0.24,0.18-0.89,0.52-1,0.79
					c0.12-0.29,0.37-0.32,0.49-0.62c-1.4,1.57-3.54,5.05-3.53,5.03l0,0.04c-0.47,0.82-0.72,1.7-0.86,2.63c0-0.9,0.09-1.8,0.25-2.68
					c0.03,0,0-0.02,0-0.02c0.15-0.82,0.37-1.64,0.66-2.42c-0.48,0.38-0.84,0.9-1.02,1.48c0.06-0.4,0.13-0.79,0.19-1.18
					c-0.11,0.16-0.22,0.32-0.33,0.48c-0.17,0.25-0.34,0.5-0.51,0.75c-0.09,0.13-0.18,0.26-0.27,0.39c-0.05,0.07-0.13,0.16-0.19,0.25
					c0.82-1.72,2.11-3.72,2.91-4.76c-0.13,0.63-0.25,1.27-0.38,1.9C650.97,225.23,654.08,222.95,657.57,222.04L657.57,222.04z"/>
			</g>
		</g>
		<path class="st14" d="M672.86,232.75c-0.96-0.86-1.85-1.8-2.67-2.79c-0.27-0.32-0.56-0.94-0.9-1.17c-0.45-0.3-0.34,0.5-0.31,0.78
			c0.09,0.92,0.3,1.95,0.66,2.81c-0.14-0.34-0.3-0.66-0.48-0.98c-0.18-0.31-0.4-0.6-0.57-0.91c-0.36-0.64-0.77-1.24-1.23-1.82
			c-0.2-0.25-0.41-0.5-0.63-0.74c0.25,0.08,0.61,0.18,0.85,0.03c0.22-0.14,0.38-0.49,0.48-0.72c0.23-0.55,0.26-1.19,0.04-1.75
			c-0.3-0.78-1.01-1.36-1.36-2.1c0.06-0.06,0.11-0.12,0.16-0.18c0.87,0.81,1.75,1.41,2.65,1.89c-0.01,0.28,0.01,0.57,0.04,0.87
			c0,0.02,0.01,0.05,0.01,0.07c-0.03,0.24,0.1,0.59,0.16,0.82c0.01,0.04,0.02,0.08,0.03,0.12c0.01,0.05,0.03,0.1,0.04,0.15
			c0.02,0.09,0.05,0.18,0.08,0.26c0.02,0.05,0.03,0.09,0.05,0.14c0.02,0.08,0.05,0.16,0.08,0.23c0.04,0.13,0.09,0.25,0.14,0.37
			c0.06,0.14,0.12,0.29,0.18,0.43c0.16,0.35,0.33,0.7,0.51,1.04c0.04,0.07,0.08,0.14,0.12,0.21c0.25,0.45,0.51,0.89,0.79,1.31
			c0.09,0.14,0.19,0.29,0.28,0.43c0.16,0.23,0.31,0.47,0.47,0.69c0.01,0.02,0.03,0.04,0.04,0.06
			C672.65,232.48,672.74,232.64,672.86,232.75L672.86,232.75z"/>
		<path class="st14" d="M651.98,240.94c-4.38-7.23,0.12-15.59,8.73-17.31C654.9,225.93,649.72,234.68,651.98,240.94z"/>
		<g class="st17">
			<g>
				<defs>
					<rect id="SVGID_7_" x="604.97" y="249.5" width="35.91" height="17.24"/>
				</defs>
				<clipPath id="SVGID_8_">
					<use xlink:href="#SVGID_7_"  style="overflow:visible;"/>
				</clipPath>
				<path class="st18" d="M640.75,256.84c-6.66,0.89-12.22-0.49-16.26-4.98c-2.69,4.38-5.23,8.23-8.65,10.66
					c2.54-2.77,4.44-5.74,5.6-8.95c-3.76,4.56-9.1,11.86-16.42,13.07c1.72-0.94,2.88-1.91,4.52-2.88c-0.05,0.22-0.1,0.45-0.16,0.67
					c3.43-1.27,6.17-4.29,7.08-7.83c0.01,0.45,0.02,0.9,0.03,1.34c2.26-1.42,4.08-3.54,5.13-6c0.19,0.85,0.37,1.71,0.55,2.56
					c-0.03-0.15,0.05-0.4,0.08-0.55c0.04-0.19,0.08-0.38,0.14-0.57c0.11-0.38,0.26-0.75,0.43-1.1c0.35-0.69,0.84-1.33,1.46-1.81
					c0.46-0.36,1-0.62,1.57-0.75c0.57-0.13,1.35-0.19,1.9,0.04c-0.29,0.16-0.63,0.22-0.91,0.42c-0.5,0.35-0.88,1.01-0.53,1.6
					c0.03-0.32,0.21-0.63,0.49-0.8c-0.11,0.39-0.16,0.81-0.05,1.19c0.1,0.35,0.34,0.64,0.62,0.87c0.21,0.18,0.45,0.33,0.7,0.46
					c0.23,0.13,0.43,0.28,0.66,0.41c0.49,0.26,1.02,0.46,1.55,0.63c0,0,0.01,0,0.01,0c0.78,0.25,1.59,0.44,2.39,0.63
					C634.85,255.97,637.72,256.5,640.75,256.84L640.75,256.84z"/>
			</g>
		</g>
		<path class="st10" d="M629.84,253.7c0.1,0.08,0.2,0.16,0.32,0.24C630.04,253.88,629.92,253.8,629.84,253.7z"/>
		<g class="st17">
			<g>
				<defs>
					<rect id="SVGID_9_" x="628.75" y="245.99" width="19.42" height="9.21"/>
				</defs>
				<clipPath id="SVGID_10_">
					<use xlink:href="#SVGID_9_"  style="overflow:visible;"/>
				</clipPath>
				<path class="st19" d="M648.06,255.1c0-0.01-0.01-0.02-0.02-0.03l-4.35-3.5c-2.16,3.66-9.11,3.79-13.85,1.69
					c0-0.02-0.92-0.51-0.98-0.55c0.73,0.27,1.73,0.36,2.07,0.41c1.99,0.27,4.03,0.13,5.97-0.39c1.1-0.3,2.17-0.72,3.17-1.27
					c0.46-0.25,0.91-0.53,1.31-0.87c0.19-0.15,0.35-0.31,0.48-0.51c0.09-0.13,0.2-0.24,0.31-0.36c0.05-0.04,0.09-0.09,0.14-0.14
					c0.63-0.7,1.07-1.57,1.26-2.49c0.01-0.03,0.02-0.07,0.02-0.11c0.05-0.3,0.08-0.6,0.08-0.9c0.94,0.71,1.65,1.72,2.02,2.83l0,0
					c0.04,0.06,0.07,0.13,0.11,0.19c0.07-0.66,0.01-1.34-0.18-1.98c1.61,2.26,2.48,5.04,2.42,7.81
					C648.05,255,648.06,255.05,648.06,255.1L648.06,255.1z"/>
			</g>
		</g>
		<path class="st14" d="M656.02,255.5c1.89,0.54,3.62,1.51,5.21,2.67c-3.81-1.2-7.71-2.47-11.76-2.1
			C651.28,254.64,653.91,254.97,656.02,255.5L656.02,255.5z"/>
		<g class="st17">
			<g>
				<defs>
					<rect id="SVGID_11_" x="645.57" y="255.03" width="8.87" height="4.35"/>
				</defs>
				<clipPath id="SVGID_12_">
					<use xlink:href="#SVGID_11_"  style="overflow:visible;"/>
				</clipPath>
				<path class="st20" d="M654.38,259.26c-0.06,0.01-0.12,0.02-0.18,0.03c-1.77-0.17-3.26-0.81-4.27-2.26
					c-1.61,0.19-3.03-0.41-4.24-1.87l1.93-0.03l0.11,0c-0.08,0.21-0.65,0.28-0.82,0.34c0.9,0.78,2.15,1.16,3.33,1.02
					c0.3,0.82,0.94,1.48,1.69,1.92C652.68,258.85,653.53,259.1,654.38,259.26L654.38,259.26z"/>
			</g>
		</g>
		<g class="st17">
			<g>
				<defs>
					<rect id="SVGID_13_" x="651.93" y="257.29" width="9.96" height="1.59"/>
				</defs>
				<clipPath id="SVGID_14_">
					<use xlink:href="#SVGID_13_"  style="overflow:visible;"/>
				</clipPath>
				<path class="st21" d="M661.79,258.77c-3.67-0.06-7.04-0.42-9.77-1.42c0.06-0.04,0.17-0.04,0.3-0.02c0.61,0.1,1.22,0.2,1.84,0.3
					c0.17,0.03,0.34,0.06,0.52,0.08c0.14,0.02,0.38,0.01,0.5,0.08c-0.18-0.1-0.37-0.2-0.55-0.31c0.5,0.09,1,0.19,1.51,0.27
					C657.85,258.38,660.1,258.61,661.79,258.77L661.79,258.77z"/>
			</g>
		</g>
		<path class="st13" d="M668.29,252.11c-0.83-0.26-1.7-0.4-2.57-0.42c0.3,0.11,0.6,0.23,0.9,0.34c-0.92-0.15-1.88-0.07-2.77,0.21
			c-0.7,0.22-1.35,0.57-2.03,0.83c-0.69,0.26-1.43,0.44-2.15,0.29c0.12,0.02,0.49-0.77,0.54-0.87c0.14-0.32,0.24-0.66,0.3-1
			c0.08-0.53-0.13-1.2,0.55-1.32c0.11-0.02,0.22-0.03,0.33-0.03c0.13,0,0.27,0,0.4,0.02c0.2,0.02,0.39,0.06,0.58,0.1
			c0.56,0.13,1.11,0.33,1.68,0.42c0.59,0.09,1.19,0.05,1.79,0.08c0.6,0.02,1.21,0.1,1.73,0.4c-0.22,0-0.45,0.01-0.67,0.01
			c0.44,0.07,0.86,0.24,1.23,0.49c0.28,0.18,0.52,0.41,0.73,0.66C668.67,252.23,668.48,252.17,668.29,252.11L668.29,252.11z"/>
		<g class="st17">
			<g>
				<defs>
					<rect id="SVGID_15_" x="659.64" y="250.09" width="8.79" height="3.35"/>
				</defs>
				<clipPath id="SVGID_16_">
					<use xlink:href="#SVGID_15_"  style="overflow:visible;"/>
				</clipPath>
				<path class="st22" d="M665.72,251.68c0.3,0.11,0.6,0.23,0.9,0.34c-0.92-0.15-1.88-0.07-2.77,0.21c-0.7,0.22-1.35,0.57-2.03,0.83
					c-0.69,0.26-1.43,0.44-2.15,0.29c0.12,0.02,0.49-0.77,0.54-0.87c0.14-0.32,0.24-0.66,0.3-1c0.08-0.53-0.13-1.2,0.55-1.32
					c0.07-0.01,0.14-0.02,0.2-0.03c0.02,0,0.09-0.02,0.1,0c0.02,0.02-0.02,0.04-0.03,0.05c-0.09,0.08-0.13,0.2-0.15,0.31
					c-0.02,0.14,0,0.28,0.03,0.43c0.02,0.14,0.05,0.28,0.04,0.43c-0.01,0.14-0.06,0.28-0.15,0.39c0.07-0.09,0.2-0.15,0.31-0.17
					c0.13-0.03,0.25-0.07,0.38-0.11c0.27-0.08,0.55-0.13,0.82-0.17c0.56-0.07,1.12-0.07,1.68,0.01c0.17,0.03,0.34,0.06,0.51,0.1
					c-0.08-0.08-0.16-0.15-0.24-0.23c1.29,0.03,2.56,0.35,3.71,0.93C667.46,251.85,666.59,251.71,665.72,251.68L665.72,251.68z"/>
			</g>
		</g>
		<path class="st14" d="M666.19,251.04c0.17-0.05,0.34-0.1,0.51-0.15c-0.9-0.03-1.8-0.07-2.69-0.11c-0.4-0.02-0.79-0.03-1.18-0.12
			c-0.3-0.07-0.6-0.18-0.85-0.35c-0.07-0.05-0.14-0.09-0.16-0.16c0.2,0.02,0.39,0.06,0.58,0.1c0.56,0.13,1.11,0.33,1.68,0.42
			c0.59,0.09,1.19,0.05,1.79,0.08c0.6,0.02,1.21,0.1,1.73,0.4c-0.22,0-0.45,0.01-0.67,0.01c0.44,0.07,0.86,0.24,1.23,0.49
			C667.52,251.35,666.86,251.14,666.19,251.04L666.19,251.04z"/>
		<g class="st23">
			<g>
				<defs>
					<rect id="SVGID_17_" x="654.11" y="224.39" width="19.09" height="13.81"/>
				</defs>
				<clipPath id="SVGID_18_">
					<use xlink:href="#SVGID_17_"  style="overflow:visible;"/>
				</clipPath>
				<path class="st24" d="M673.15,236.16c-0.73,1.45-2.34,1.85-4.27-1.5c-0.07,0.81,0.07,1.21,0.34,2.23
					c-1.95-4.28-4.89-3.74-3.72-7.44c-1.17,2.02-2.62,2.12-4.4,0.08c0.21,0.87,1.21,1.75,2.41,2.65c-1.6-0.35-2.73-1.15-3.32-2.18
					c-0.9,0.34-1.72,0.9-2.34,1.63c-0.52,0.61-0.87,1.34-1.08,2.12c0.15-1.08,0.62-2.13,1.37-2.95c0.51-0.55,1.12-1.02,1.79-1.37
					c-0.11-0.29-0.18-0.59-0.21-0.9c-1.92,1.16-3.52,2.87-4.49,4.9c-0.68,1.46-1,3.05-0.99,4.67c-0.28-2.17,0.1-4.45,1.12-6.41
					c1.05-2.01,2.64-3.75,4.57-4.96c0.2-0.63,0.54-1.27,1.03-1.9c0.2-0.16,0.39-0.28,0.54-0.29c-0.27,1.21-0.44,2.3-0.05,3.53
					c0.06-0.15,0.11-0.3,0.17-0.45c0.04,0.88,0.6,1.72,1.4,2.09c0.8,0.37,1.8,0.26,2.5-0.28c0.04,0.95,0.72,1.74,1.37,2.45
					c0.84,0.91,1.69,1.83,2.53,2.75c0.05-0.12,0.11-0.24,0.16-0.36c0.08,0.87,0.67,1.67,1.47,2.02
					C671.71,236.52,672.51,236.49,673.15,236.16L673.15,236.16z"/>
			</g>
		</g>
		<g class="st23">
			<g>
				<defs>
					<rect id="SVGID_19_" x="664.24" y="224.39" width="3.26" height="2.85"/>
				</defs>
				<clipPath id="SVGID_20_">
					<use xlink:href="#SVGID_19_"  style="overflow:visible;"/>
				</clipPath>
				<path class="st25" d="M664.74,225.41c0.11,0.31,0.17,0.65,0.38,0.9c0.18,0.21,0.43,0.33,0.69,0.42c0.52,0.2,1.07,0.34,1.62,0.42
					c-0.26-0.98-0.91-1.85-1.77-2.37c-0.2-0.12-0.42-0.23-0.65-0.26c-0.18-0.02-0.6-0.02-0.61,0.24c-0.01,0.11,0.11,0.2,0.17,0.28
					C664.63,225.15,664.69,225.28,664.74,225.41L664.74,225.41z"/>
			</g>
		</g>
		<g class="st26">
			<g>
				<defs>
					<rect id="SVGID_21_" x="651.93" y="228.66" width="6.19" height="25.45"/>
				</defs>
				<clipPath id="SVGID_22_">
					<use xlink:href="#SVGID_21_"  style="overflow:visible;"/>
				</clipPath>
				<path class="st27" d="M653.24,244.68c-0.68-2.84-1.6-5.76-1.06-8.63c0.51-2.74,2.27-5.06,3.98-7.26
					c-0.82,1.96-1.65,3.94-2.09,6.02s-0.48,4.3,0.26,6.29c0.62,1.67,1.75,3.11,2.58,4.69c0.64,1.22,1.11,2.58,1.09,3.96
					c-0.03,1.38-0.61,2.8-1.73,3.61c-0.59,0.42-1.86,1.02-2.51,0.42c-0.55-0.51-0.3-1.5-0.17-2.13
					C654.09,249.29,653.8,247,653.24,244.68L653.24,244.68z"/>
			</g>
		</g>
		<path class="st10" d="M661.42,221.43c-3.61,0.63-6.81,2.79-9.32,5.39c-1.54,1.62-2.84,3.45-3.92,5.41
			c0.98-2.02,2.19-3.94,3.64-5.66c1.97-2.3,4.41-4.25,7.23-5.42c0.73-0.3,1.45-0.56,2.24-0.71L661.42,221.43L661.42,221.43z"/>
		<path class="st10" d="M592.84,277.72c-0.04,0.05-0.08,0.1-0.12,0.14c0.02-0.08,0.04-0.13,0.04-0.13S592.79,277.73,592.84,277.72
			L592.84,277.72z"/>
		<path class="st10" d="M661.25,220.74c-11.65-0.54-14.57,9.34-20.79,15.56c-3.44,3.44-7.88,5.75-15.35,4.58
			c-3.04-0.41-6.89,0.51-8.21,3.08c0.23-2.15,2.24-3.26,4.09-3.9c1.81-0.63,3.72-0.8,5.55-1.33c2.08-0.61,4.07-1.51,5.89-2.68
			c1.29-0.82,2.54-1.84,3.13-3.25c-0.5,0.33-1.02,0.63-1.54,0.91c-1.89,1-3.93,1.7-6.03,2.07c-0.53,0.09-1.05,0.16-1.59,0.21
			c-0.45,0.04-0.74-0.06-1.16-0.14c-1.12-0.2-2.35-0.1-3.49-0.14c-1.49-0.06-2.99,0.06-4.46,0.37c-1.45,0.3-2.84,0.82-4.22,1.32
			c-0.16,0.06-0.61,0.14-0.71,0.27c1.04-1.28,2.18-2.04,3.51-2.51c1.78-0.64,3.88-0.78,6.48-0.96c6.22-0.44,6.31-3.15,10.01-3.71
			c-1.4-0.39-3.2-0.82-4.45-0.72c-5.17,0.4-9.25,3.65-13.91-1.5c5.37,3.66,10.72-3.53,23.88-0.97c-5.31-1.72-5.99-6.55-14.02-5.45
			c4.81-2.42,10.92-2.04,15.39,0.97c-2.24-2.17-4.82-3.99-7.62-5.38c2.66,0.01,5.31,0.6,7.73,1.69c1.46,0.66,2.84,1.49,4.1,2.5
			c-0.05-0.13-0.09-0.26-0.15-0.39c-0.04-0.1-0.08-0.21-0.12-0.31c-1.2-2.84-3.57-5.33-6.85-5.19c4.18-1.13,8.26,1.19,12.32,1.9
			c2.06,0.36,4.17,0.31,6.27,0.21c0.35-0.02,0.7-0.04,1.05-0.05c-2.29-0.04-4.59-0.13-6.83-0.69c-1.05-0.26-2.07-0.62-3.08-1.13
			c0,0,0,0-0.01,0c-0.88-0.45-1.73-1.01-2.57-1.7c4.94,2.22,11.7-0.79,16.01,3.21c-0.35-1.14-1.12-2.15-2.13-2.78
			c1.16,0.34,2.19,0.98,2.92,1.83C661.24,217.63,661.69,219.11,661.25,220.74L661.25,220.74z"/>
		<path class="st13" d="M637.01,235.11c-0.07,0.16-0.15,0.32-0.23,0.47c-0.47,0.9-1.08,1.73-1.88,2.35c0.18-0.34,0.31-0.72,0.37-1.1
			c-0.01,0.05-0.16,0.18-0.2,0.22c-0.05,0.04-0.1,0.05-0.16,0.08c-0.21,0.08-0.4,0.21-0.59,0.32c-0.42,0.24-0.84,0.47-1.26,0.71
			c-0.23,0.13-0.46,0.25-0.69,0.36l-0.06,0.03c0.01-0.01,0.02-0.02,0.04-0.02c-2.15,1.03-4.59,1.35-6.96,1.65
			c2.17-0.48,4.38-0.97,6.34-2.03c0.64-0.34,1.24-0.75,1.81-1.2c0.28-0.23,0.56-0.47,0.82-0.72c0.11-0.11,0.2-0.22,0.3-0.33
			s0.26-0.17,0.38-0.25c1.14-0.7,2.12-1.67,2.83-2.8c0.02-0.03,0.04-0.06,0.05-0.09C637.63,233.56,637.36,234.35,637.01,235.11
			L637.01,235.11z"/>
		<g class="st15">
			<g>
				<defs>
					<rect id="SVGID_23_" x="625.31" y="232.68" width="12.72" height="7.53"/>
				</defs>
				<clipPath id="SVGID_24_">
					<use xlink:href="#SVGID_23_"  style="overflow:visible;"/>
				</clipPath>
				<path class="st28" d="M637.01,235.11c-0.07,0.16-0.15,0.32-0.23,0.47c-0.47,0.9-1.08,1.73-1.88,2.35
					c0.18-0.34,0.31-0.72,0.37-1.1c-0.01,0.05-0.16,0.18-0.2,0.22c-0.05,0.04-0.1,0.05-0.16,0.08c-0.21,0.08-0.4,0.21-0.59,0.32
					c-0.42,0.24-0.84,0.47-1.26,0.71c-0.23,0.13-0.46,0.25-0.69,0.36l-0.06,0.03c0.01-0.01,0.02-0.02,0.04-0.02
					c-2.15,1.03-4.59,1.35-6.96,1.65c2.17-0.48,4.38-0.97,6.34-2.03c0.64-0.34,1.24-0.75,1.81-1.2c0.28-0.23,0.56-0.47,0.82-0.72
					c0.11-0.11,0.2-0.22,0.3-0.33s0.26-0.17,0.38-0.25c1.14-0.7,2.12-1.67,2.83-2.8c0.02-0.03,0.04-0.06,0.05-0.09
					C637.63,233.56,637.36,234.35,637.01,235.11L637.01,235.11z"/>
			</g>
		</g>
		<path class="st13" d="M667.46,227.14c-0.01-0.01-0.03-0.02-0.04-0.02c-0.18-0.51-0.51-0.92-1.04-1.22
			c0.34,0.02,0.65,0.14,0.93,0.35C667.38,226.51,667.43,226.8,667.46,227.14z"/>
		<path class="st13" d="M665.66,224.4c0,0-0.01,0-0.01,0C665.65,224.4,665.65,224.4,665.66,224.4L665.66,224.4
			C665.66,224.4,665.66,224.4,665.66,224.4L665.66,224.4z"/>
		<path class="st10" d="M667.46,227.14c-0.01-0.01-0.03-0.02-0.04-0.02c-0.48-0.32-1.27-0.56-1.42-1.21
			c-0.1-0.42-0.36-0.8-0.77-0.96c-0.29-0.11-0.62-0.13-1.02-0.17c-0.07,0-0.14-0.01-0.21-0.02c0.05,0,1.46-0.04,1.99,0.16
			c0,0-0.11-0.42-0.57-0.6c0.08,0.03,0.16,0.06,0.23,0.09h0c0,0,0,0,0,0c0.77,0.32,1.37,0.86,1.65,1.84
			C667.38,226.51,667.43,226.8,667.46,227.14L667.46,227.14z"/>
		<path class="st13" d="M628.93,258.31c-0.07,0.34-0.16,0.69-0.27,1.05c-0.81,2.56-2.81,5.38-6.07,7.11
			c-0.97,0.51-2.06,0.93-3.26,1.21c1.23-1.05,2.13-3.24,1.4-5.37C620.72,262.31,625.71,261.55,628.93,258.31z"/>
		<path class="st10" d="M655.6,246.66l-0.02,0.02c-1.27-1.31-2.4-2.78-3.27-4.4c-2.77-5.02-1.97-10.86,1.67-15.21
			c-2.05,2.81-3.11,6.44-2.54,9.9c0.39,2.48,1.6,4.71,3.21,6.62C655.01,244.65,655.36,245.67,655.6,246.66L655.6,246.66z"/>
		<path class="st14" d="M672.4,234.88c0.03-0.05,0.07-0.1,0.1-0.16c0.13-0.25,0.17-0.56,0.06-0.82c-0.09-0.24-0.49-0.65-0.76-0.41
			c-0.27,0.24-0.4,0.72-0.43,1.06c-0.01,0.11-0.01,0.22-0.01,0.33L672.4,234.88L672.4,234.88z"/>
		<path class="st10" d="M671.4,235.48c0.04,0.17,0.11,0.35,0.27,0.43c0.18,0.1,0.41,0.03,0.56-0.1c0.15-0.14,0.24-0.33,0.32-0.51
			c-0.21,0.2-0.42,0.34-0.63,0.32c0.23-0.16,0.44-0.37,0.57-0.62s0.17-0.56,0.06-0.82c-0.09-0.24-0.49-0.65-0.76-0.41
			c-0.27,0.24-0.4,0.72-0.43,1.06C671.34,235.04,671.35,235.27,671.4,235.48L671.4,235.48z"/>
		<path class="st13" d="M671,224.67c-0.03-0.06-0.07-0.13-0.1-0.19c-0.37-0.67-0.9-1.25-1.53-1.68c-1.06,0.73-2.52-0.68-3.02-1.6
			c0.2-0.27,0.31-0.65,0.36-1.05c0.03-0.23,0.03-0.47,0.02-0.7c-0.01-0.26-0.04-0.51-0.08-0.74c0.17,0.44,0.27,1.17,0.25,1.69
			c0,0.06-0.01,0.13-0.01,0.18c0.39-0.48,0.7-1.03,0.92-1.6c0.11-0.28,0.2-0.56,0.27-0.85c0.04,0.65-0.05,1.31-0.28,1.91
			c1.16,0.16,2.54,1.21,2.13,2.25c0,0.01-0.01,0.02-0.01,0.03c0.12,0.03,0.22,0.08,0.3,0.13c0,0,0.01,0,0.01,0.01
			c0.06,0.03,0.11,0.07,0.15,0.12c0,0,0.01,0.01,0.02,0.01c0.37,0.38,0.34,1.01,0.45,1.59c0.02,0.11,0.05,0.22,0.09,0.33
			C670.95,224.56,670.97,224.61,671,224.67L671,224.67z"/>
		<path class="st10" d="M611.78,223.16c2.99,0.41,5.38,3.12,8.32,3.7c4.65,0.92,9.73-3.32,14.18-0.85
			c-2.84-2.47-7.22-1.15-10.66-1.67c-6.93-1.05-11.42-7.79-17.18,0.93C607.52,223.63,609.65,222.71,611.78,223.16L611.78,223.16z"/>
		<path class="st10" d="M635.67,232.58c-3.54-0.2-6.9,2.03-10.27,3.38c-1.47,0.59-3.07,0.78-4.62,0.51
			c-0.53-0.09-1.07-0.21-1.59-0.33c5.39,5.24,10.71-1.64,16.48-2.81L635.67,232.58L635.67,232.58z"/>
		<g class="st17">
			<g>
				<defs>
					<rect id="SVGID_25_" x="666.25" y="220.04" width="5.02" height="4.77"/>
				</defs>
				<clipPath id="SVGID_26_">
					<use xlink:href="#SVGID_25_"  style="overflow:visible;"/>
				</clipPath>
				<path class="st29" d="M671.19,224.65c-0.09-0.05-0.09,0.16-0.18,0.11c-0.01,0-0.12-0.2-0.12-0.27c-0.37-0.67-0.9-1.25-1.53-1.68
					c-1.06,0.73-2.52-0.68-3.02-1.6c0.2-0.27,0.31-0.65,0.36-1.05c0,0.31-0.12,0.64-0.05,0.94c0.06,0.27,0.26,0.49,0.45,0.69
					c0.29,0.29,0.61,0.57,0.99,0.72c0.41,0.17,0.87,0.17,1.28,0.02c0.27,0.04,0.47,0.29,0.63,0.51c0.28,0.38,0.56,0.76,0.84,1.14
					C670.96,224.33,671.08,224.49,671.19,224.65L671.19,224.65z"/>
			</g>
		</g>
		<g class="st17">
			<g>
				<defs>
					<rect id="SVGID_27_" x="671.27" y="234.77" width="1.59" height="1.34"/>
				</defs>
				<clipPath id="SVGID_28_">
					<use xlink:href="#SVGID_27_"  style="overflow:visible;"/>
				</clipPath>
				<path class="st30" d="M671.41,235.64c0.25,0.84,1.4,0.19,1.34-0.48c-0.17,0.08-0.34,0.15-0.51,0.23
					c0.12-0.16,0.19-0.35,0.2-0.55c-0.31,0.14-0.67,0.56-1.02,0.3C671.26,235.05,671.38,235.55,671.41,235.64L671.41,235.64z"/>
			</g>
		</g>
		<path class="st10" d="M630.56,230.63c-1.47,0.26-2.92,0.69-4.32,1.2c-2.48,0.88-5.11,2.07-7.84,1.97
			c-1.61-0.04-3.21-0.62-4.44-1.65c-0.3-0.24-0.58-0.52-0.84-0.81c0.18,0.07,0.35,0.16,0.53,0.23c0.14,0.07,0.38,0.16,0.52,0.22
			c1,0.41,2.1,0.67,3.16,0.71c2.95,0.11,5.69-1.23,8.6-1.8C627.44,230.41,629.04,230.27,630.56,230.63L630.56,230.63z"/>
		<path class="st13" d="M628.68,233.24c-1.16,0.9-2.61,1.42-4.1,1.41c6.08,1.43,4.84-3.36,12.15-2.08c-2-1.87-5.45-1.04-7.64,0.38
			C628.94,233.03,628.81,233.14,628.68,233.24L628.68,233.24z"/>
		<g class="st15">
			<g>
				<defs>
					<rect id="SVGID_29_" x="624.48" y="231.42" width="12.39" height="3.6"/>
				</defs>
				<clipPath id="SVGID_30_">
					<use xlink:href="#SVGID_29_"  style="overflow:visible;"/>
				</clipPath>
				<path class="st31" d="M628.68,233.24c-1.16,0.9-2.61,1.42-4.1,1.41c6.08,1.43,4.84-3.36,12.15-2.08c-2-1.87-5.45-1.04-7.64,0.38
					C628.94,233.03,628.81,233.14,628.68,233.24L628.68,233.24z"/>
			</g>
		</g>
		<path class="st13" d="M621.98,237.19c4.38,0.17,7.15-3.63,12.09-3.74C630.84,233.52,625.2,239.2,621.98,237.19z"/>
		<g class="st15">
			<g>
				<defs>
					<rect id="SVGID_31_" x="621.88" y="233.35" width="12.22" height="4.35"/>
				</defs>
				<clipPath id="SVGID_32_">
					<use xlink:href="#SVGID_31_"  style="overflow:visible;"/>
				</clipPath>
				<path class="st32" d="M621.98,237.19c4.38,0.17,7.15-3.63,12.09-3.74C630.84,233.52,625.2,239.2,621.98,237.19z"/>
			</g>
		</g>
		<path class="st13" d="M626.66,225.3c-0.38,0.15-0.77,0.27-1.15,0.37c-0.31,0.08-0.61,0.14-0.92,0.19
			c-0.04,0.01-0.08,0.01-0.13,0.02c-3.49,0.5-6.89-0.94-9.82-3.03c-1.14-0.81-2.83-0.93-4.15-0.51l0,0
			c0.04-0.02,0.07-0.04,0.11-0.06c0.01,0,0.02-0.01,0.03-0.01c0.28-0.15,0.57-0.26,0.85-0.35
			C616.48,220.31,620.79,226.88,626.66,225.3L626.66,225.3z"/>
		<path class="st14" d="M626.66,225.3c-0.37,0.17-0.76,0.29-1.15,0.37c-4.64,0.89-10.34-4.49-14.03-3.76
			C616.48,220.31,620.79,226.88,626.66,225.3z"/>
		<g class="st15">
			<g>
				<defs>
					<rect id="SVGID_33_" x="610.41" y="221.88" width="14.15" height="4.19"/>
				</defs>
				<clipPath id="SVGID_34_">
					<use xlink:href="#SVGID_33_"  style="overflow:visible;"/>
				</clipPath>
				<path class="st33" d="M624.47,225.87c-3.49,0.5-6.89-0.94-9.82-3.03c-1.14-0.81-2.83-0.93-4.15-0.51l0,0
					c0.01,0,0.05-0.03,0.11-0.06c0.01,0,0.02-0.01,0.03-0.01c0.51-0.24,2.36-0.87,5.08,0.87
					C618.8,225.11,622.2,226.13,624.47,225.87L624.47,225.87z"/>
			</g>
		</g>
		<g class="st15">
			<g>
				<defs>
					<rect id="SVGID_35_" x="624.64" y="225.73" width="0.33" height="0.17"/>
				</defs>
				<clipPath id="SVGID_36_">
					<use xlink:href="#SVGID_35_"  style="overflow:visible;"/>
				</clipPath>
				<path class="st34" d="M624.72,225.84c0.07-0.01,0.13-0.02,0.18-0.03c-0.04,0.01-0.09,0.02-0.15,0.02
					C624.74,225.83,624.73,225.84,624.72,225.84L624.72,225.84z"/>
			</g>
		</g>
		<g class="st17">
			<g>
				<defs>
					<rect id="SVGID_37_" x="619.29" y="258.21" width="9.71" height="9.54"/>
				</defs>
				<clipPath id="SVGID_38_">
					<use xlink:href="#SVGID_37_"  style="overflow:visible;"/>
				</clipPath>
				<path class="st35" d="M628.93,258.31c-0.07,0.34-0.16,0.69-0.27,1.05c-0.49,0.59-1.05,1.09-1.62,1.61
					c-0.53,0.49-1.35,0.78-1.99,1.12c0.55-0.19,1.09-0.38,1.64-0.57c-0.95,0.89-2.15,1.5-3.42,1.74c0.19,0.5,0.18,1.07-0.02,1.57
					c-0.03-0.31-0.18-0.61-0.41-0.82c0.08,0.52,0.07,1.06-0.03,1.58c-0.05,0.25-0.1,0.53-0.21,0.77c-0.09,0.18-0.18,0.2-0.36,0.28
					c-0.94,0.44-1.89,0.79-2.9,1.03c1.23-1.05,2.13-3.24,1.4-5.37C620.72,262.31,625.71,261.55,628.93,258.31L628.93,258.31z"/>
			</g>
		</g>
		<path class="st14" d="M666.66,218.7c0.17,0.44,0.27,1.17,0.25,1.69c-0.01-0.05-0.11-0.7-0.14-0.86c-0.01-0.03-0.02-0.06-0.03-0.09
			C666.73,219.18,666.7,218.93,666.66,218.7L666.66,218.7z"/>
		<path class="st14" d="M669.93,222.29c-0.13-0.05-0.27-0.1-0.41-0.1c-0.07,0-0.15,0.02-0.21,0.04c-0.04,0.02-0.16,0.05-0.17,0.09
			c0.06-0.12,0.11-0.25,0.15-0.38c0.03-0.13,0.05-0.27,0.01-0.4c-0.04-0.14-0.12-0.26-0.23-0.35c-0.11-0.09-0.25-0.15-0.39-0.17
			c0.25-0.05,0.51,0.02,0.7,0.19c-0.02-0.11-0.08-0.2-0.16-0.28s-0.18-0.13-0.27-0.18c-0.14-0.08-0.25-0.17-0.4-0.23
			c-0.15-0.06-0.3-0.1-0.45-0.13c-0.29-0.04-0.6-0.01-0.85,0.15c0.39-0.5,0.71-0.95,0.6-1.58c0.11-0.28,0.2-0.56,0.27-0.85
			c0.04,0.65-0.05,1.31-0.28,1.91C668.96,220.2,670.34,221.25,669.93,222.29L669.93,222.29z"/>
		<path class="st14" d="M670.38,222.57c-0.05-0.04-0.1-0.08-0.15-0.12C670.29,222.49,670.34,222.53,670.38,222.57z"/>
		<path class="st14" d="M612.78,245.41c0.11,0.14,0.22,0.28,0.34,0.42c-1.15-0.48-2.31-0.97-3.52-1.28c-0.4-0.1-0.81-0.19-1.22-0.24
			c-0.39-0.05-0.8-0.09-1.2-0.1c2.19-0.31,3.12,0.03,5.44,1.17c-0.39-0.38-0.79-0.74-1.2-1.09c1.4,0.7,2.64,1.59,3.64,2.77
			C614.38,246.4,613.61,245.85,612.78,245.41z"/>
		<path class="st14" d="M616.11,247.06c-0.09-0.09-0.19-0.18-0.29-0.26c-0.08-0.1-0.16-0.2-0.25-0.3c-0.42-0.47-0.92-0.86-1.47-1.15
			c-0.23-0.12-0.48-0.23-0.73-0.32C614.49,245.37,615.58,246,616.11,247.06L616.11,247.06z"/>
		<path class="st10" d="M607.51,256.15c-0.4,0.94-0.81,1.9-1.45,2.69c-0.64,0.8-1.55,1.44-2.57,1.51c0.92-0.85,1.51-2.04,1.63-3.28
			c-1.28,1.98-2.66,3.92-4.46,5.45c-1.8,1.52-4.06,2.61-6.41,2.6c1.8-1.07,3.33-2.58,4.43-4.36c-1.17,1.48-3.04,2.39-4.93,2.38
			c-1.89-0.01-3.75-0.93-4.91-2.42c2.96,1.99,5.18,1.4,7.75,0.35c-2,0.31-3.91,0.37-5.58-0.77c2.94-0.21,5.8-1.44,7.97-3.44
			c1.36-1.25,2.44-2.77,3.77-4.05s3.02-2.34,4.87-2.32c0.53,0.01,1.13,0.13,1.56,0.47c0.52,0.41,0.26,0.71,0.03,1.21
			C608.6,253.48,608.08,254.83,607.51,256.15L607.51,256.15z"/>
		<path class="st10" d="M617.29,246.46c-1.99-1.83-4.61-2.7-7.28-2.92c-2.6-0.09-4.66,0.27-6.97,1.5c-4.57,1.55-6.7,5.57-8.94,9.55
			c0.89-0.32,1.67-0.94,2.44-1.47c-0.7,0.89-1.48,1.69-2.35,2.42c-0.75-1.63-0.59-4.71-0.71-6.6c-0.7,1.81-0.74,3.72-1.04,5.62
			c-0.31-3.25-2.01-4.67-1.78-8.3c-0.84,1.19-1.05,2.28-0.88,3.72c-1.32-1.25-2.39-2.57-3.27-4.16c-0.55,2.06-0.77,3.81-0.13,5.9
			c0.48,1.57,1.3,3.07,1.67,4.7c0.1-0.83,0.25-1.68,0.36-2.48c0.43,1.9-0.12,4.42,1.5,5.84c1.61,1.42,2.55,2.48,5.18,1.71
			c4.2-1.23,5.81-3.55,9.04-7.31c2.4-2.79,4.48-2.25,7.97-3.02c-0.23,0.95-0.99,1.22-1.87,1.68c3.23-0.94,4.34-4.4,7.5-6.35
			C617.57,246.46,617.43,246.47,617.29,246.46L617.29,246.46z"/>
		<path class="st13" d="M616.11,247.06c-0.09-0.09-0.19-0.18-0.29-0.26c-0.88-0.75-1.91-1.25-2.87-1.89
			c0.14,0.03,0.28,0.07,0.42,0.11C614.49,245.37,615.58,246,616.11,247.06z"/>
		<path class="st13" d="M615.54,247.66c-3.5-1.67-5.37-2.97-9.36-3.3c0.36-0.07,0.69-0.12,0.99-0.17h0
			c2.19-0.31,3.12,0.03,5.44,1.17c-0.39-0.38-0.79-0.74-1.2-1.09c1.4,0.7,2.64,1.59,3.64,2.77
			C615.22,247.25,615.39,247.45,615.54,247.66L615.54,247.66z"/>
		<path class="st13" d="M605.58,245.19c2.62-0.19,4.24,0.42,6.36,1.91C609.86,246.04,607.92,245.42,605.58,245.19z"/>
		<path class="st13" d="M601.97,246.15c2.33-0.82,4.15-0.11,6.26,1.03C606.11,246.33,604.25,245.78,601.97,246.15L601.97,246.15z"/>
		<path class="st13" d="M598.99,248.41c1.3-1.22,2.74-1.71,4.49-1.75C601.85,246.89,600.41,247.6,598.99,248.41z"/>
		<path class="st13" d="M596.69,252.19c1.92-2.32,4.47-4.88,7.63-4.54C601.86,247.8,598.78,250.67,596.69,252.19z"/>
		<path class="st13" d="M609.76,250.41c-0.66-0.24-1.26-0.42-1.82-0.57c-5.91-1.51-6.48,2.07-10.82,6.25
			c-0.08,0.07-0.16,0.15-0.23,0.22c0.05-0.06,0.09-0.12,0.14-0.17c0.75-0.95,1.48-1.91,2.27-2.83c-1.31,1-2.64,2.01-4.06,2.86
			c-0.04,0.02-0.08,0.05-0.12,0.07c0.04-0.03,0.07-0.06,0.11-0.09c0.6-0.5,1.17-1.03,1.74-1.56c0.15-0.14,0.3-0.29,0.45-0.44
			c0.47-0.45,0.93-0.9,1.4-1.34c-0.7,0.13-1.3,0.45-1.9,0.84c0.96-0.76,1.95-1.49,2.95-2.2c0.03-0.02,0.06-0.04,0.09-0.06
			c-0.02,0.01-0.04,0.03-0.07,0.04c-1.01,0.6-2,1.17-3,1.82c0.53-0.39,0.7-0.54,1.23-1c0.99-0.87,1.02-1.11,2.37-2.18
			c3.1-2.43,4.64-2.33,7.75-0.56C608.7,249.76,609.21,250.06,609.76,250.41L609.76,250.41z"/>
		<path class="st13" d="M604.04,251.08c-0.88,1.62-1.98,3.24-3.25,4.63c-0.7,0.77-1.44,1.47-2.22,2.07
			c-0.96,0.73-1.75,0.98-2.67,0.92c-0.92-0.05-1.24-0.53-1.7-1.08c-0.84-1-1.03-2-1.16-3.19c0,0,0,0,0,0
			c-0.01-0.13-0.03-0.25-0.04-0.39c0.02,0.04,0.04,0.09,0.06,0.13c0.07,0.15,0.14,0.3,0.21,0.44c0,0,0,0,0,0
			c1.78,3.53,3.54,2.54,6.54,0.14c-0.35,0.53-0.69,1.07-1.07,1.59c1.69-1.57,3.22-3.31,4.89-4.88
			C603.77,251.33,603.9,251.2,604.04,251.08L604.04,251.08z"/>
		<path class="st13" d="M595.2,259.24c-0.12,0.05-0.24,0.09-0.36,0.14c-1.05,0.44-1.97,0.92-3.08,0.15c-2.33-1.62-1.31-4.57-2-6.92
			c-0.08-0.26-0.18-0.49-0.31-0.71c-0.03-0.06-0.07-0.11-0.1-0.16c0,0-0.01-0.01-0.01-0.02c-0.53-0.79-1.35-1.32-2-2.01
			c0.2,1.16,0.62,2.22,1.08,3.3c-0.66-0.87-1.14-1.68-1.4-2.57c-0.2-0.7-0.28-1.45-0.2-2.32c1,0.84,1.8,1.64,2.52,2.67
			c0.15,0.21,0.29,0.43,0.44,0.66c0.85,1.37,0.95,2.86,1.13,4.46c0.02-1.05,0.18-2.06-0.03-3.1c0.24,0.34,0.5,0.64,0.53,1.07
			c0.04,0.53,0.02,1.15,0.07,1.66c0.11,0.9,0.38,1.6,0.91,2.26c0.07,0.09,0.15,0.18,0.23,0.27c0.37,0.41,0.9,0.48,1.37,0.68
			c0.02,0.01,0.04,0.02,0.05,0.02c-0.03,0-0.05,0-0.08,0.01c-1.53,0.13-2.4-0.29-3-1.79c0.41,2.54,1.63,2.99,3.76,2.39
			C594.88,259.34,595.04,259.3,595.2,259.24L595.2,259.24z"/>
		<path class="st13" d="M605.44,257.98c0.33-0.6,0.22-2.65,0.22-2.65s-0.1,0.12-0.27,0.31c-0.36,0.4-1.04,1.1-1.71,1.55
			c1.81-1.95,2.63-5.55,2.63-5.55c0,0.01,0.01,0.05,0.02,0.1C606.45,252.35,607.06,255.51,605.44,257.98L605.44,257.98z"/>
		<path class="st13" d="M602.32,258.13c0,0.24-0.01,0.47-0.04,0.71c-0.16,1.24-0.79,2.42-1.75,3.22c0.15-0.27,0.31-0.55,0.46-0.82
			c-0.04,0.04-0.09,0.07-0.13,0.11l0,0c-0.31,0.24-0.63,0.46-0.97,0.65c-0.1,0.06-0.2,0.11-0.31,0.16
			c-0.12,0.06-0.25,0.12-0.38,0.17c-0.07,0.03-0.7,0.26-0.74,0.27c0.04-0.03,0.63-0.46,0.7-0.52c1.34-1.08,2.22-2.51,2.99-4.01
			c0.05-0.1,0.1-0.2,0.15-0.3C602.31,257.9,602.32,258.02,602.32,258.13L602.32,258.13z"/>
		<path class="st13" d="M602.28,255.11c-0.09,0.47-0.23,0.92-0.41,1.36c-0.2,0.49-0.45,0.96-0.75,1.39
			c-0.14,0.2-0.28,0.39-0.44,0.57c-0.08,0.09-0.17,0.17-0.27,0.24c-0.05,0.04-0.11,0.07-0.16,0.1c-0.03,0.01-0.13,0.04-0.15,0.07
			c0.14-0.26,0.27-0.53,0.41-0.79c-0.36,0.52-0.86,0.94-1.44,1.2c0.09-0.14,0.18-0.27,0.27-0.41c-0.31,0.25-0.63,0.52-0.98,0.73
			c-0.25,0.15-0.52,0.28-0.81,0.35c-0.26,0.06-0.52,0.16-0.78,0.23c-0.25,0.07-0.51,0.13-0.77,0.18c-0.34,0.07-0.7,0.13-1.05,0.15
			c-0.07,0-0.15,0-0.22,0c2.73-0.95,5.53-2.43,7.42-5.17C602.19,255.23,602.24,255.17,602.28,255.11L602.28,255.11z"/>
		<path class="st14" d="M603.63,251.45c-0.66,0.96-1.34,1.89-2.12,2.76c-1.05,1.17-2.26,2.21-3.68,2.89
			c0.17-0.19,0.33-0.39,0.49-0.58c-0.57,0.52-1.35,0.8-2.12,0.77c-0.77-0.03-1.52-0.36-2.06-0.92c-0.61-0.64-0.8-1.42-1.1-2.21
			c0.05,0.15,0.13,0.29,0.21,0.44c0,0,0,0,0,0c1.78,3.53,3.54,2.54,6.54,0.14c-0.35,0.53-0.69,1.07-1.07,1.59
			C600.44,254.77,601.96,253.03,603.63,251.45L603.63,251.45z"/>
		<path class="st14" d="M602.15,255.3c-0.09,0.19-0.23,0.36-0.35,0.54c-0.44,0.61-0.88,1.22-1.32,1.83
			c0.01-0.07,0.02-0.14,0.03-0.22c-0.33,0.32-0.66,0.64-0.99,0.96c0-0.03,0.01-0.07,0.01-0.1c-1.36,1.02-2.93,1.75-4.57,2.16
			c-0.07,0-0.15,0-0.22,0C597.46,259.52,600.27,258.03,602.15,255.3L602.15,255.3z"/>
		<path class="st14" d="M602.05,258.74c-0.29,0.63-0.7,1.18-1.2,1.67c0.08-0.08,0.32-0.14,0.4-0.22c-0.36,0.65-0.83,1.26-1.37,1.8
			c-0.1,0.06-0.2,0.11-0.31,0.16c-0.12,0.06-0.25,0.12-0.38,0.17c-0.07,0.03-0.7,0.26-0.74,0.27c0.04-0.03,0.63-0.46,0.7-0.52
			c1.34-1.08,2.22-2.51,2.99-4.01c0.05-0.1,0.1-0.2,0.15-0.3c0.01,0.12,0.02,0.23,0.02,0.35
			C602.24,258.33,602.15,258.53,602.05,258.74L602.05,258.74z"/>
		<g class="st17">
			<g>
				<defs>
					<rect id="SVGID_39_" x="600.45" y="258.79" width="1.93" height="3.35"/>
				</defs>
				<clipPath id="SVGID_40_">
					<use xlink:href="#SVGID_39_"  style="overflow:visible;"/>
				</clipPath>
				<path class="st36" d="M602.28,258.84c-0.16,1.24-0.79,2.42-1.75,3.22c0.15-0.27,0.31-0.55,0.46-0.82
					c-0.04,0.04-0.09,0.07-0.13,0.11c0.02-0.03,0.05-0.05,0.07-0.08c0.18-0.23,0.34-0.48,0.48-0.73c0.07-0.13,0.18-0.28,0.22-0.42
					c-0.02,0.12-0.04,0.25-0.07,0.37C601.85,259.96,602.09,259.41,602.28,258.84L602.28,258.84z"/>
			</g>
		</g>
		<g class="st17">
			<g>
				<defs>
					<rect id="SVGID_41_" x="593" y="254.36" width="7.87" height="4.44"/>
				</defs>
				<clipPath id="SVGID_42_">
					<use xlink:href="#SVGID_41_"  style="overflow:visible;"/>
				</clipPath>
				<path class="st37" d="M600.79,255.71c-0.7,0.77-1.44,1.47-2.22,2.07c-0.96,0.73-1.75,0.98-2.67,0.92
					c-0.92-0.05-1.24-0.53-1.7-1.08c-0.84-1-1.03-2-1.16-3.19c0.02,0.07,0.03,0.14,0.03,0.17c0.08,0.53,0.18,1.06,0.37,1.57
					c0.25,0.67,0.68,1.3,1.3,1.65c0.62,0.36,1.44,0.41,2.03,0c-0.13,0.19-0.26,0.37-0.39,0.55
					C598,257.77,599.5,256.86,600.79,255.71L600.79,255.71z"/>
			</g>
		</g>
		<g class="st17">
			<g>
				<defs>
					<rect id="SVGID_43_" x="595.09" y="249.17" width="12.98" height="7.37"/>
				</defs>
				<clipPath id="SVGID_44_">
					<use xlink:href="#SVGID_43_"  style="overflow:visible;"/>
				</clipPath>
				<path class="st38" d="M607.94,249.84c-5.91-1.51-6.48,2.07-10.82,6.25c-0.03,0.02-0.06,0.03-0.1,0.05
					c-0.33,0.16-0.68,0.28-1.04,0.3c-0.2,0.01-0.4-0.01-0.57-0.11c-0.07-0.04-0.13-0.1-0.18-0.16c0,0-0.01-0.01-0.02-0.02
					c-0.06-0.09-0.09-0.19-0.09-0.3c0.04-0.55,0.91-0.58,1.27-0.84c0.19-0.14,0.37-0.28,0.56-0.42c0.41-0.32,0.83-0.62,1.3-0.87
					c0.38-0.2,0.78-0.37,1.19-0.5c0,0.06-0.01,0.12-0.01,0.18c0.66-2.18,2.7-3.86,4.96-4.09
					C605.61,249.18,606.79,249.44,607.94,249.84L607.94,249.84z"/>
			</g>
		</g>
		<path class="st14" d="M588.91,250.23c-0.52-0.52-1.17-0.95-1.82-1.25c-0.12,0.45-0.14,0.97-0.08,1.46c-0.2-0.7-0.28-1.45-0.2-2.32
			C587.62,248.79,588.3,249.45,588.91,250.23L588.91,250.23z"/>
		<g class="st17">
			<g>
				<defs>
					<rect id="SVGID_45_" x="589.23" y="251.68" width="0.17" height="0.17"/>
				</defs>
				<clipPath id="SVGID_46_">
					<use xlink:href="#SVGID_45_"  style="overflow:visible;"/>
				</clipPath>
				<path class="st39" d="M589.25,251.81l0.05-0.03c-0.01,0.01-0.02,0.02-0.03,0.04C589.26,251.81,589.25,251.81,589.25,251.81
					L589.25,251.81z"/>
			</g>
		</g>
		<g class="st17">
			<g>
				<defs>
					<rect id="SVGID_47_" x="589.23" y="251.59" width="0.33" height="0.25"/>
				</defs>
				<clipPath id="SVGID_48_">
					<use xlink:href="#SVGID_47_"  style="overflow:visible;"/>
				</clipPath>
				<path class="st40" d="M589.55,251.62l-0.2,0.12l-0.05,0.03c0.01-0.02,0.03-0.03,0.04-0.05
					C589.4,251.67,589.47,251.63,589.55,251.62L589.55,251.62z"/>
			</g>
		</g>
		<g class="st17">
			<g>
				<defs>
					<rect id="SVGID_49_" x="589.32" y="251.76" width="5.61" height="8.29"/>
				</defs>
				<clipPath id="SVGID_50_">
					<use xlink:href="#SVGID_49_"  style="overflow:visible;"/>
				</clipPath>
				<path class="st41" d="M594.84,259.39c-1.05,0.44-1.97,0.92-3.08,0.15c-2.33-1.62-1.31-4.57-2-6.92
					c-0.08-0.26-0.18-0.49-0.31-0.71c0.18,0.13,0.3,0.35,0.38,0.56c0.25,0.69,0.23,1.44,0.25,2.17c0.02,0.73,0.09,1.5,0.49,2.11
					c0-0.17,0.01-0.34,0.01-0.51c0.05,0.39,0.39,0.68,0.71,0.91c0.35,0.24,0.72,0.46,1.09,0.66c0.07,0.09,0.15,0.18,0.23,0.27
					c0.37,0.41,0.9,0.48,1.37,0.68c0,0.01-0.01,0.02-0.02,0.03c-1.53,0.13-2.4-0.29-3-1.79c0.41,2.54,1.63,2.99,3.76,2.39
					C594.77,259.39,594.8,259.39,594.84,259.39L594.84,259.39z"/>
			</g>
		</g>
		<g class="st17">
			<g>
				<defs>
					<rect id="SVGID_51_" x="605.31" y="251.68" width="1.34" height="6.36"/>
				</defs>
				<clipPath id="SVGID_52_">
					<use xlink:href="#SVGID_51_"  style="overflow:visible;"/>
				</clipPath>
				<path class="st42" d="M605.44,257.98c0.33-0.6,0.22-2.65,0.22-2.65s-0.1,0.12-0.27,0.31c0.04-0.15,0.09-0.31,0.13-0.46
					c0.26-0.93,0.48-1.88,0.67-2.83c0.03-0.16,0.05-0.41,0.13-0.61C606.45,252.35,607.06,255.51,605.44,257.98L605.44,257.98z"/>
			</g>
		</g>
		<path class="st14" d="M599.87,251.44c-0.26,0.28-0.53,0.56-0.79,0.84c0.15,0.03,0.3,0.07,0.45,0.1c-0.63,0.66-1.34,1.26-2.11,1.76
			c0.47-0.45,0.93-0.9,1.4-1.34c-0.7,0.13-1.3,0.45-1.9,0.84C597.88,252.88,598.87,252.15,599.87,251.44z"/>
		<path class="st14" d="M608.23,249.49c-0.02-0.01-0.04-0.02-0.06-0.03c-0.72-0.33-2.48-0.98-3.82-0.85
			c-1.81,0.12-4.04,1.67-5.31,2.96c0.21-0.04,0.91-0.39,1.33-0.66c-0.16,0.17-0.32,0.34-0.48,0.51c-1.01,0.6-2,1.17-3,1.82
			c0.53-0.39,0.7-0.54,1.23-1c0.99-0.87,1.02-1.11,2.37-2.18C603.58,247.62,605.13,247.72,608.23,249.49L608.23,249.49z"/>
		<path class="st13" d="M648.62,216.24c2.8,0.63,5.65,0.99,8.52,1.08c-0.49,0.27-0.98,0.53-1.46,0.8c0.81-0.37,1.73-0.51,2.62-0.4
			c-0.75-0.91-1.85-1.52-3.02-1.68c0.17,0.13,0.34,0.26,0.51,0.39c-1.42-0.53-2.95-0.78-4.47-0.75c0.34,0.13,0.69,0.26,1.03,0.38
			c-1.52-0.36-3.08-0.49-4.64-0.39c0.43,0.18,0.86,0.35,1.29,0.53L648.62,216.24L648.62,216.24z"/>
		<path class="st13" d="M641.17,228.71c-0.74-0.56-1.63-0.8-2.58-0.72c0.6-0.1,1.2-0.2,1.8-0.3c-1.88-0.88-3.67-2.19-5.31-3.48
			c-1.14-0.91-2.34-2.07-3.75-2.54c-0.44-0.15-0.89-0.23-1.37-0.23c4.37-0.32,10.29,2.42,11.11,6.36
			C641.14,228.09,641.17,228.4,641.17,228.71L641.17,228.71z"/>
		<path class="st13" d="M655.3,220.16c-0.82,0.08-1.66,0.28-2.34,0.68c-0.19,0.11-0.37,0.24-0.53,0.39
			c-0.41,0.37-0.72,0.87-0.86,1.52c0.01-0.42,0.03-0.83,0.04-1.25c-1.31,0.78-2.32,2.04-2.82,3.48c0.02-0.54,0.15-1.08,0.38-1.57
			c-0.87,1.16-1.53,2.49-1.94,3.88c0.3-2.16,0.1-4.31-0.78-6.33c0.04,0.59-0.05,1.18-0.2,1.77c-0.29-1.07-0.72-2.13-1.33-3.06
			c-0.16-0.25-0.34-0.48-0.53-0.71c-0.04-0.05-0.09-0.1-0.13-0.15c-0.01-0.01-0.02-0.02-0.03-0.04c-0.36-0.39-0.76-0.74-1.22-1.03
			C647.19,220.31,654.2,220.18,655.3,220.16L655.3,220.16z"/>
		<path class="st13" d="M644.6,226.32c0,0.04-0.01,0.08-0.02,0.12c-0.05,0.22-0.18,0.47-0.26,0.68c-0.01,0.02-0.01,0.03-0.02,0.04
			c-0.2,0.57-0.4,1.14-0.6,1.7c-0.04,0.13-0.09,0.25-0.13,0.38c0-0.67,0.08-1.33,0.24-1.97c-0.39,0.44-0.71,0.94-0.96,1.47
			c-0.05-0.22-0.22-0.65-0.25-0.8c-0.05-0.19-0.1-0.38-0.16-0.56c-0.12-0.4-0.26-0.79-0.41-1.18c-0.32-0.83-0.69-1.64-1.11-2.42
			c-0.3-0.55-0.62-1.12-0.98-1.66c-0.41-0.62-0.87-1.21-1.4-1.7c-0.14-0.13-0.29-0.26-0.44-0.38c-0.29-0.22-0.61-0.43-0.96-0.52
			c1.57,0.41,3.15,0.84,4.53,1.72c1.03,0.66,1.85,1.57,2.33,2.7c0.25,0.6,0.42,1.23,0.53,1.87
			C644.54,225.95,644.61,226.16,644.6,226.32L644.6,226.32z"/>
		<path class="st13" d="M636.98,230.7c0.55,0.19,1.1,0.37,1.65,0.56c-0.64-0.07-1.28-0.14-1.91-0.24c-0.7-0.12-1.39-0.27-2.06-0.52
			c-0.65-0.24-1.25-0.6-1.9-0.86c-1.36-0.54-2.82-0.81-4.28-0.72c-0.99,0.06-1.95,0.28-2.93,0.47c-0.18,0.03-0.36,0.07-0.54,0.09
			c-0.49,0.08-0.99,0.14-1.49,0.14c-0.16,0-0.31,0-0.47-0.02c-0.07,0-0.13-0.01-0.2-0.02c-0.4-0.05-0.8-0.16-1.13-0.37
			c1.39,0.03,2.83-0.33,4.08-0.91c-0.22,0.22-0.44,0.44-0.67,0.65c0.94-0.47,1.93-0.82,2.95-1.04c0.96-0.21,1.94-0.3,2.91-0.28
			c-0.46,0.07-0.91,0.15-1.37,0.22c2.36-0.06,4.73,0.25,6.99,0.92c-0.41,0.13-0.82,0.26-1.23,0.39c0.24-0.05,0.58-0.04,0.78-0.05
			c0.25-0.02,0.5-0.01,0.74,0.02c0.52,0.05,1.04,0.17,1.53,0.36c0.27,0.1,0.53,0.23,0.78,0.37c0.22,0.12,0.43,0.26,0.62,0.41
			c0.41,0.31,0.66,0.59,0.89,1.04c-0.39-0.22-0.81-0.38-1.25-0.5C638.67,230.59,637.81,230.55,636.98,230.7L636.98,230.7z"/>
		<path class="st14" d="M644.25,218.81l0.07,0.02c-0.03-0.02-0.07-0.03-0.1-0.05c-0.36-0.39-0.76-0.74-1.22-1.03
			c4.19,2.56,11.2,2.44,12.3,2.41c-0.82,0.08-1.66,0.28-2.34,0.68c-2.94-0.06-5.88-0.7-8.57-1.88L644.25,218.81L644.25,218.81z"/>
		<path class="st14" d="M644.6,226.32c0,0.04-0.01,0.08-0.02,0.12c-0.99-2.1-2.55-3.93-4.48-5.24c-0.5-0.33-1.01-0.62-1.56-0.8
			c-0.14-0.13-0.29-0.26-0.44-0.38c-0.29-0.22-0.61-0.43-0.96-0.52c1.57,0.41,3.15,0.84,4.53,1.72c1.03,0.66,1.85,1.57,2.33,2.7
			c0.25,0.6,0.42,1.23,0.53,1.87C644.54,225.95,644.61,226.15,644.6,226.32L644.6,226.32z"/>
		<path class="st14" d="M639.21,229.85c-1.27-0.37-2.59-0.59-3.91-0.67c0,0-0.01,0-0.02,0c-0.33-0.02-0.66-0.03-0.98-0.03
			c0.33-0.13,0.67-0.26,1-0.39c-2.18-0.48-4.42-0.69-6.65-0.65c0.05-0.07,0.1-0.14,0.14-0.22c-1.34,0.45-2.68,0.91-4.02,1.36
			c-0.02-0.06-0.04-0.11-0.06-0.17c-0.45,0.12-0.9,0.24-1.35,0.35c-0.18,0.04-0.35,0.09-0.52,0.14c-0.4-0.05-0.8-0.16-1.13-0.37
			c1.39,0.03,2.83-0.33,4.08-0.91c-0.22,0.22-0.44,0.44-0.67,0.65c0.94-0.47,1.93-0.82,2.95-1.04c0.96-0.21,1.94-0.3,2.91-0.28
			c-0.46,0.07-0.91,0.15-1.37,0.22c2.36-0.06,4.73,0.25,6.99,0.92c-0.41,0.13-0.82,0.26-1.23,0.39c0.24-0.05,0.58-0.04,0.78-0.05
			c0.25-0.02,0.5-0.01,0.74,0.02c0.52,0.05,1.04,0.17,1.53,0.36C638.69,229.59,638.96,229.71,639.21,229.85L639.21,229.85z"/>
		<g class="st23">
			<g>
				<defs>
					<rect id="SVGID_53_" x="644.82" y="219.62" width="7.7" height="7.7"/>
				</defs>
				<clipPath id="SVGID_54_">
					<use xlink:href="#SVGID_53_"  style="overflow:visible;"/>
				</clipPath>
				<path class="st43" d="M652.43,221.23c-0.41,0.37-0.72,0.87-0.86,1.52c0.01-0.42,0.03-0.83,0.04-1.25
					c-1.31,0.78-2.32,2.04-2.82,3.48c0.02-0.54,0.15-1.08,0.38-1.57c-0.87,1.16-1.53,2.49-1.94,3.88c0.3-2.16,0.1-4.31-0.78-6.33
					c0.04,0.59-0.05,1.18-0.2,1.77c-0.29-1.07-0.72-2.13-1.33-3.06l0.06-0.02c0.44,0.46,0.88,0.91,1.33,1.37
					c-0.02-0.19-0.04-0.38-0.06-0.58c0.93,0.8,1.58,1.94,1.79,3.15c0.18-0.41,0.47-0.77,0.84-1.03c0.03,0.15,0.05,0.31,0.08,0.46
					C649.83,222.02,651.1,221.38,652.43,221.23L652.43,221.23z"/>
			</g>
		</g>
		<g class="st15">
			<g>
				<defs>
					<rect id="SVGID_55_" x="639.21" y="221.37" width="5.19" height="7.95"/>
				</defs>
				<clipPath id="SVGID_56_">
					<use xlink:href="#SVGID_55_"  style="overflow:visible;"/>
				</clipPath>
				<path class="st44" d="M644.32,227.12c-0.01,0.02-0.01,0.03-0.02,0.04c-0.2,0.57-0.4,1.14-0.6,1.7
					c-0.04,0.13-0.09,0.25-0.13,0.38c0-0.67,0.08-1.33,0.24-1.97c-0.39,0.44-0.71,0.94-0.96,1.47c-0.05-0.22-0.22-0.65-0.25-0.8
					c-0.05-0.19-0.1-0.38-0.16-0.56c-0.12-0.4-0.26-0.79-0.41-1.18c-0.32-0.83-0.69-1.64-1.11-2.42c-0.22-0.41-0.45-0.82-0.69-1.22
					c-0.12-0.2-0.24-0.38-0.41-0.54c-0.17-0.16-0.35-0.33-0.53-0.49l0.04,0.03c0.32,0.23,0.64,0.5,0.98,0.71
					c0.28,0.17,0.5,0.45,0.71,0.7c0.46,0.56,0.85,1.17,1.19,1.8c0.08,0.16,0.8,1.48,0.69,1.59c0.16-0.15,0.31-0.29,0.47-0.44
					c0.02,0.52,0.38,1.01,0.87,1.18C644.25,227.1,644.28,227.11,644.32,227.12L644.32,227.12z"/>
			</g>
		</g>
		<g class="st15">
			<g>
				<defs>
					<rect id="SVGID_57_" x="634.1" y="223.38" width="5.69" height="4.1"/>
				</defs>
				<clipPath id="SVGID_58_">
					<use xlink:href="#SVGID_57_"  style="overflow:visible;"/>
				</clipPath>
				<path class="st45" d="M639.2,227.03c-0.48-0.27-0.96-0.56-1.42-0.87c-0.93-0.6-1.83-1.26-2.69-1.96
					c-0.29-0.23-0.57-0.47-0.85-0.71c0.33,0.02,0.78,0.32,1,0.44c0.58,0.32,1.11,0.72,1.64,1.12c-0.09-0.15-0.17-0.31-0.26-0.46
					c0.68,0.35,1.3,0.81,1.83,1.36c-0.05-0.09-0.1-0.17-0.15-0.26c0.49,0.31,0.91,0.73,1.22,1.23c0.1,0.16,0.19,0.32,0.27,0.49
					C639.55,227.26,639.31,227.09,639.2,227.03L639.2,227.03z"/>
			</g>
		</g>
		<g class="st15">
			<g>
				<defs>
					<rect id="SVGID_59_" x="638.46" y="227.65" width="1.84" height="0.67"/>
				</defs>
				<clipPath id="SVGID_60_">
					<use xlink:href="#SVGID_59_"  style="overflow:visible;"/>
				</clipPath>
				<path class="st46" d="M640.24,228.19c-0.51-0.19-1.07-0.26-1.64-0.21c0.46-0.08,0.91-0.15,1.37-0.23
					c0.06,0.12,0.13,0.24,0.21,0.35C640.2,228.13,640.22,228.16,640.24,228.19L640.24,228.19z"/>
			</g>
		</g>
		<g class="st15">
			<g>
				<defs>
					<rect id="SVGID_61_" x="622.8" y="228.32" width="16.74" height="3.01"/>
				</defs>
				<clipPath id="SVGID_62_">
					<use xlink:href="#SVGID_61_"  style="overflow:visible;"/>
				</clipPath>
				<path class="st47" d="M636.98,230.7c0.55,0.19,1.1,0.37,1.65,0.56c-0.64-0.07-1.28-0.14-1.91-0.24
					c-0.7-0.12-1.39-0.27-2.06-0.52c-0.65-0.24-1.25-0.6-1.9-0.86c-1.36-0.54-2.82-0.81-4.28-0.72c-0.99,0.06-1.95,0.28-2.93,0.47
					c-0.18,0.02-0.36,0.06-0.54,0.09c-0.04,0.01-0.08,0.02-0.13,0.02c-0.69,0.15-1.32,0.43-1.99,0.66c-0.05-0.18,0.02-0.4,0.15-0.55
					c0.09-0.1,0.2-0.17,0.32-0.19c0.32-0.05,0.62,0.01,0.95-0.07c0.97-0.23,1.94-0.51,2.92-0.69c1.95-0.36,3.97-0.33,5.9,0.09
					c-0.39,0.19-0.77,0.38-1.16,0.58c1.55,0.25,3.11,0.5,4.66,0.74c0.97,0.16,1.98,0.33,2.84,0.76
					C638.66,230.59,637.81,230.55,636.98,230.7L636.98,230.7z"/>
			</g>
		</g>
		<path class="st14" d="M641.08,227.79c-2.14-4.37-7.16-5.72-9.74-6.14c-0.44-0.15-0.89-0.23-1.37-0.23
			C634.33,221.11,640.26,223.86,641.08,227.79z"/>
	</g>
</g>
</svg>
